<svg xmlns="http://www.w3.org/2000/svg" xmlns:xlink="http://www.w3.org/1999/xlink" id="uuid-2c0eddf7-dcff-47da-9f54-a0c81c8e1084" viewBox="0 0 1031.591414391137732 210.9130859375"><defs><style>@import url('https://fonts.googleapis.com/css2?family=Inter:wght@500&family=Playfair+Display:wght@700&display=swap');</style><style>.uuid-695089a7-7ae6-47d4-b588-5fd344cc1c15{fill:#010101;}.uuid-b500efe8-7259-44e3-8f86-f49c89aaea7d{fill:url(#uuid-4bf74a2c-80ab-41b1-b1a5-34d65ef31f9f);}.uuid-2e4176df-9f96-4077-9dcf-bc23f53d9320{fill:#fff;}</style><linearGradient id="uuid-4bf74a2c-80ab-41b1-b1a5-34d65ef31f9f" x1="10.132755926955724" y1="176.855385994384051" x2="174.33656561943809" y2="12.651576301901715" gradientUnits="userSpaceOnUse"><stop offset="0" stop-color="#b693ec"></stop><stop offset="1" stop-color="#54e9be"></stop></linearGradient></defs><g id="uuid-a2b59bb4-3d56-480e-b409-acc10a5ea716"><path class="uuid-b500efe8-7259-44e3-8f86-f49c89aaea7d" d="M63.909232570643326,210.9130859375c-3.3583984375,0-6.70263671875-1.0185546875-9.41552734375-2.869140625-4.50732421875-3.072265625-8.341796875-7.453125-11.65380859375-13.328125-4.77978515625-.7109375-10.9052734375-2.3193359375-17.48486328125-5.8017578125-12.580078125-6.662109375-20.12890625-16.626953125-21.83154296875-28.8173828125-1.56689453125-11.2138671875.58935546875-18.236328125,4.8427734375-26.576171875,1.84033203125-3.6083984375,6.2958984375-9.349609375,13.25-14.9375-.46142578125-1.2861328125-.93017578125-2.4765625-1.4111328125-3.5869140625-.9697265625-2.2392578125-2.09423828125-4.7275390625-3.3037109375-7.404296875C7.328177883143326,86.40234375-5.782661960606674,57.3818359375,2.770560695643326,38.4658203125,13.279838039393326,15.2275390625,28.735892726893326,3.4453125,48.710990383143326,3.4453125c16.6796875,0,32.4072265625,8.3916015625,42.97412109375,14.125C101.005423976893326,8.4462890625,117.080131008143326,0,135.170951320643326,0c2.53515625,0,5.09521484375.1650390625,7.609375.490234375,25.84912109375,3.4501953125,40.55029296875,15.1513671875,43.8095703125,34.8212890625,11.62744140625,2.3212890625,19.80712890625,8.884765625,22.77197265625,18.453125,2.21923828125,7.1611328125.55224609375,15.216796875-4.693359375,22.6826171875-5.6298828125,8.0126953125-15.1142578125,15.138671875-28.18994140625,21.181640625-1.10009765625.5078125-2.1806640625.998046875-3.248046875,1.4775390625-1.08154296875,2.79296875-2.17626953125,5.5791015625-3.26318359375,8.3447265625-5.0576171875,12.87109375-9.8349609375,25.0283203125-12.29638671875,35.3916015625-.88671875,3.7333984375-1.74853515625,7.6796875-2.6611328125,11.859375-2.943359375,13.4814453125-5.98681640625,27.421875-10.490234375,36.9287109375-3.29296875,6.9501953125-10.517578125,18.611328125-21.89794921875,18.611328125-.00048828125,0,.00048828125,0-.00048828125,0-11.18994140625,0-20.60205078125-11.189453125-28.7734375-34.2080078125l-.06787109375-.19140625-.05712890625-.1962890625c-.56298828125-1.9365234375-1.07861328125-3.59765625-1.546875-5.0224609375-.39599609375,1.248046875-.78076171875,2.4931640625-1.1328125,3.6318359375-3.90869140625,12.6484375-8.77294921875,28.388671875-18.91357421875,34.4384765625-2.43115234375,1.451171875-5.2744140625,2.21875-8.22021484375,2.21875Z"></path><path class="uuid-2e4176df-9f96-4077-9dcf-bc23f53d9320" d="M202.675188858746878,55.837096259023383c-2.313018798828125-7.464996337890625-9.47900390625-13.09600830078125-21.433013916015625-14.24200439453125-.35699462890625-.03399658203125-.694976806640625-.066986083984375-1.02398681640625-.09698486328125-.88299560546875-17.3280029296875-10.707000732421875-30.378021240234375-38.33599853515625-34.06500244140625-22.662017822265625-2.9320068359375-41.61700439453125,9.673004150390625-48.660003662109375,18.90399169921875-17.48199462890625-9.05499267578125-60.270004272460938-37.62200927734375-84.072998046875,15.01300048828125C.863177139996878,59.674101874257758,18.768175919293753,94.067107245351508,26.628176529645316,112.213103339101508c1.180999755859375,2.7249755859375,2.233001708984375,5.743988037109375,3.199005126953125,8.97698974609375-8.199005126953125,5.65399169921875-13.434005737304688,11.998992919921875-15.225006103515625,15.510986328125-4.110992431640625,8.05999755859375-5.392990112304688,13.50201416015625-4.14599609375,22.427001953125,1.305999755859375,9.35101318359375,6.910003662109375,17.635009765625,18.173995971679688,23.5989990234375,7.564010620117188,4.004013061523438,14.389007568359375,5.157012939453125,18.6820068359375,5.43402099609375,2.916000366210938,6.029998779296875,6.509002685546875,10.952987670898438,11.125,14.099990844726562,2.932998657226562,2,7.06500244140625,2.23699951171875,10.105987548828125.4219970703125,18.59100341796875-11.090988159179688,18.03302001953125-76.681991577148438,31.9010009765625-28.990982055664062,16.197021484375,45.623992919921875,31.483001708984375,28.167984008789062,37.7490234375,14.941986083984375,5.489990234375-11.587982177734375,8.94097900390625-31.7239990234375,12.6669921875-47.40899658203125,3.29998779296875-13.89300537109375,10.451995849609375-30.548004150390625,16.878997802734375-47.3380126953125,1.897003173828125-.83599853515625,3.819000244140625-1.696990966796875,5.803009033203125-2.61297607421875,26.08599853515625-12.05401611328125,31.9329833984375-26.40301513671875,29.13299560546875-35.43701171875M37.096178848981253,107.741087958242133c-1.386993408203125-2.569000244140625-2.850997924804688-5.10498046875-4.20599365234375-7.68499755859375-12.363998413085938-23.54400634765625-19.830001831054688-52.27398681640625-2.26300048828125-70.427001953125,15.96600341796875-16.49798583984375,38.451995849609375-1.584991455078125,52.4639892578125,4.727996826171875-4.897003173828125,1.95501708984375-10.2969970703125,2.97601318359375-15.77099609375,2.9840087890625-19.037002563476562.02899169921875,10.75,9.20599365234375,20.665008544921875,2.779998779296875,12.683990478515625-7.949005126953125,29.92401123046875-21.006988525390625,46.6820068359375-22.010009765625,16.75799560546875-1.003997802734375,33.03399658203125,10.047027587890625,35.097991943359375,33.722015380859375.75,8.60699462890625-4.766998291015625,23.839996337890625-11.123992919921875,39.260009765625-2.1719970703125.941986083984375-4.417022705078125,1.866973876953125-6.72601318359375,2.78900146484375-8.753997802734375,3.493988037109375-21.30499267578125,7.1519775390625-40.46600341796875,10.548980712890625-.68499755859375.12200927734375-1.360992431640625.235992431640625-2.032989501953125.34600830078125.0050048828125-6.9630126953125.665985107421875-13.70001220703125-2.149993896484375-13.498992919921875-3.282012939453125.2349853515625-4.73699951171875,2.333984375-8.739013671875,7.121002197265625-2.123992919921875,2.53997802734375-3.32598876953125,4.324981689453125-4.006988525390625,6.095977783203125-.688018798828125-1.76898193359375-1.897003173828125-3.548980712890625-4.029998779296875-6.08099365234375-4.02099609375-4.772003173828125-5.4840087890625-6.864990234375-8.7659912109375-7.087005615234375-3.2230224609375-.217987060546875-1.860015869140625,8.626007080078125-2.1400146484375,16.509002685546875-6.5880126953125.5570068359375-13.873992919921875,1.2860107421875-22.663009643554688,2.593017578125-6.245986938476562.92999267578125-11.884994506835938,2.72698974609375-16.875,4.985992431640625-.89599609375-3.0570068359375-1.865997314453125-5.667999267578125-2.949996948242188-7.67401123046875M42.077181656598441,180.992095038320258c-15.964996337890625-3.894989013671875-23.220993041992188-14.572998046875-21.606002807617188-28.196990966796875,1.102996826171875-9.305999755859375,5.600006103515625-16.613006591796875,11.809005737304688-22.282012939453125,3.871994018554688,16.44000244140625,6.649993896484375,35.97601318359375,12.25,51.06500244140625-.746002197265625-.17401123046875-1.561004638671875-.36798095703125-2.4530029296875-.58599853515625M142.387194473981253,131.772093817617133c-.855010986328125,3.13299560546875-1.7340087890625,6.25799560546875-2.649017333984375,9.37799072265625-5.760009765625,19.628997802734375-11.031005859375,80.007003784179688-28.183990478515625,33.6920166015625-22.108001708984375-60.34600830078125-32.420989990234375-2.746002197265625-44.42401123046875,16.66400146484375-1.092987060546875,1.766998291015625-4.050994873046875,2.115997314453125-5.695999145507812.630996704101562-11.060989379882812-9.983016967773438-14.350997924804688-45.613998413085938-19.363998413085938-68.607009887695312,3.978012084960938-2.240997314453125,8.214004516601562-4.066986083984375,12.460006713867188-5.524993896484375,5.509994506835938-1.891998291015625,13.860000610351562-2.946990966796875,24.918014526367188-4.15301513671875.0009765625,6.30401611328125.485992431640625,12.12701416015625,1.613983154296875,12.659027099609375,1.459991455078125.689971923828125,2.949005126953125.343994140625,6.391998291015625-2.956024169921875,2.51300048828125-2.40899658203125,5.614013671875-7.281982421875,7.082000732421875-10.77197265625,1.480987548828125,3.483978271484375,4.600982666015625,8.345977783203125,7.123016357421875,10.7449951171875,3.454986572265625,3.285980224609375,4.94598388671875,3.626983642578125,6.402984619140625,2.9320068359375,1.329010009765625-.634033203125,1.7340087890625-8.63201904296875,1.506988525390625-16.094024658203125,17.032012939453125-2.28399658203125,30.628021240234375-5.587982177734375,45.7550048828125-11.35699462890625-5.444000244140625,12.834991455078125-10.824981689453125,25.0260009765625-12.936981201171875,32.76300048828125M189.756182511090628,64.880095526601508c-3.427001953125,8.760986328125-9.99700927734375,14.91900634765625-18.6719970703125,20.02099609375,4.6669921875-12.98199462890625,8.404998779296875-25.760986328125,9.0889892578125-37.118988037109375,10.199005126953125,3.574981689453125,11.8179931640625,11.385986328125,9.5830078125,17.097991943359375"></path><path class="uuid-2e4176df-9f96-4077-9dcf-bc23f53d9320" d="M77.347277481793753,73.805785223867133c.438995361328125.33099365234375,8.8599853515625,6.595001220703125,17.141998291015625,6.89599609375,2.05499267578125.07501220703125,5.009002685546875-.186004638671875,6.923004150390625-1.027984619140625,8.779998779296875-3.865997314453125,9.347991943359375-7.510009765625,9.44500732421875-9.319000244140625.083984375-1.555999755859375-.916015625-2.88201904296875-2.233001708984375-2.96099853515625-1.152008056640625-.076019287109375-2.178009033203125.847991943359375-2.462005615234375,2.1309814453125-.2139892578125.3690185546875-1.558013916015625,2.31500244140625-7.27801513671875,4.834014892578125-6.128997802734375,2.696990966796875-15.743988037109375-2.92401123046875-18.930999755859375-5.319000244140625-1.105987548828125-.832000732421875-2.58599853515625-.441009521484375-3.30499267578125.873992919921875-.720001220703125,1.316009521484375-.406982421875,3.0579833984375.699005126953125,3.891998291015625"></path><text x="240" y="92" font-family="'Playfair Display', Georgia, serif" font-weight="700" font-size="62" fill="#010101" letter-spacing="0">Dr. med. dent. Negar Ajoudani</text><text x="242" y="148" font-family="'Inter', Arial, sans-serif" font-weight="500" font-size="34" fill="#010101" letter-spacing="6">KIEFERORTHOPÄDIN</text></g></svg>