<svg xmlns="http://www.w3.org/2000/svg" xmlns:xlink="http://www.w3.org/1999/xlink" id="uuid-2c0eddf7-dcff-47da-9f54-a0c81c8e1084" viewBox="0 0 1031.591414391137732 210.9130859375"><defs><style>.uuid-695089a7-7ae6-47d4-b588-5fd344cc1c15{fill:#010101;}.uuid-b500efe8-7259-44e3-8f86-f49c89aaea7d{fill:url(#uuid-4bf74a2c-80ab-41b1-b1a5-34d65ef31f9f);}.uuid-2e4176df-9f96-4077-9dcf-bc23f53d9320{fill:#fff;}</style><linearGradient id="uuid-4bf74a2c-80ab-41b1-b1a5-34d65ef31f9f" x1="10.132755926955724" y1="176.855385994384051" x2="174.33656561943809" y2="12.651576301901715" gradientUnits="userSpaceOnUse"><stop offset="0" stop-color="#b693ec"></stop><stop offset="1" stop-color="#54e9be"></stop></linearGradient></defs><g id="uuid-a2b59bb4-3d56-480e-b409-acc10a5ea716"><path class="uuid-695089a7-7ae6-47d4-b588-5fd344cc1c15" d="M1024.187427663046947,179.43343625518537h6.295214632001262v-37.592487827399964h-6.295214632001262v26.699566319053702l-19.030807022495537-26.699566319053702h-7.51172166860124v.498926211692378l2.544328046081318,3.975516363349016v33.11804525235857h6.295214632002171v-24.326182564840565l17.702986013013287,24.326182564840565ZM965.208674551577133,179.43343625518537h6.295214632001262v-37.592487827399964h-6.295214632001262v37.592487827399964ZM920.38074815611526,147.859879959250975c7.634985969905756,0,12.059701226544348,5.47429683009068,12.059701226544348,12.777312382233504,0,7.299057384991102-4.424715256638592,12.777312382235323-12.059701226544348,12.777312382235323h-7.187728246718507v-25.554624764468826h7.187728246718507ZM906.893801614064614,179.43343625518537h13.542573197707497c11.340194396928382,0,18.523918980317831-7.788035099922126,18.523918980317831-18.796243913700891,0-11.008208813776946-7.183724583389449-18.796243913699072-18.523918980317831-18.796243913699072h-13.542573197707497v37.592487827399964ZM867.494418062837212,134.317291596151335c0,1.930114528960985,1.488877466155827,3.422919831489708,3.422950162273082,3.422919831489708,1.985756350009979,0,3.424891332369953-1.492805302528723,3.424891332369953-3.422919831489708,0-1.880417541340648-1.439134982359974-3.424906497763004-3.424891332369953-3.424906497763004-1.934072696117255,0-3.422950162273082,1.544488956422356-3.422950162273082,3.424906497763004M856.434540760557866,134.317291596151335c0,1.930114528960985,1.488816804589987,3.422919831489708,3.424891332371772,3.422919831489708,1.985817011575818,0,3.422950162273082-1.492805302528723,3.422950162273082-3.422919831489708,0-1.880417541340648-1.437133150697264-3.424906497763004-3.422950162273082-3.424906497763004-1.936074527781784,0-3.424891332371772,1.544488956422356-3.424891332371772,3.424906497763004M865.387399243187247,150.080214583445922l5.088656092159908,14.045503072729844h-10.230997669879798l5.14234157771989-14.045503072729844ZM875.89471034439066,179.43343625518537h7.022728788274435l-14.045457576553417-37.592487827399964h-7.022789449843003l-14.045457576553417,37.592487827399964h7.022728788276254l3.373207678479048-9.288787067547673h14.321831669440144l3.373207678479957,9.288787067547673ZM822.509499535593022,153.449464094766881c0,3.758848416408-2.433014073199047,5.533911983686266-5.694968440360753,5.533911983686266h-5.533911983686266v-11.123496119202173h5.533911983686266c3.261954367161707,0,5.694968440360753,1.824775720289836,5.694968440360753,5.589584135515906M804.981461477779703,179.43343625518537h6.299157633766299v-14.431128645266654h5.64328478646803c7.134042761157616,0,12.105440047010234-4.309458281994011,12.105440047010234-11.552843515151835,0-7.303030717535876-4.971397285852618-11.608515666981475-12.105440047010234-11.608515666981475h-11.942442420234329v37.592487827399964ZM746.602954557950397,160.663034168432205c0-7.287122221958271,5.527967150257609-13.079452475110884,12.886639688841569-13.079452475110884,7.243415563942108,0,12.832954203285226,5.792330253152613,12.832954203285226,13.079452475110884,0,7.285135555684974-5.589538639343118,13.083425807657477-12.832954203285226,13.083425807657477-7.35867253858396,0-12.886639688841569-5.798290251972503-12.886639688841569-13.083425807657477M740.140738635842354,160.663034168432205c0,10.986340319375813,8.340661962565719,19.3786556050527,19.348855610949613,19.3786556050527,11.004250646622495,0,19.348855610949613-8.392315285676887,19.348855610949613-19.3786556050527,0-10.982366986827401-8.344604964327118-19.374682272504288-19.348855610949613-19.374682272504288-11.008193648383894,0-19.348855610949613,8.392315285676887-19.348855610949613,19.374682272504288M707.700510552140258,179.43343625518537h6.295275293567101v-37.592487827399964h-6.295275293567101v15.649622348140838h-19.307059792248765v-15.649622348140838h-6.295214632002171v37.592487827399964h6.295214632002171v-15.925920614070492h19.307059792248765v15.925920614070492ZM641.865969280931495,179.43343625518537h6.29521463200399v-31.573556295934395h9.565115664256155v-6.018931531465569h-25.427387130618627v6.018931531465569h9.567056834358482v31.573556295934395ZM602.766799817872197,153.228822815279273c0,3.42689316403812-2.377387417542195,5.311284037923542-5.643284786468939,5.311284037923542h-5.70085261222448v-10.68022689395184h5.70085261222448c3.265897368926744,0,5.643284786468939,1.936089693170288,5.643284786468939,5.368942856028298M585.129388957275296,179.43343625518537h6.293273461903482v-14.874397870516987h2.880271796388115c4.754714173517641,0,8.740118372059442,6.082550348388395,10.228995838217088,14.874397870516987h6.521785579528114c-1.107134233816396-8.515549256198938-4.420772254872645-14.985711843399258-9.060168792179866-17.247781624728304,4.031143019006777-1.105193063718616,7.291095554503954-4.198144309113559,7.291095554503954-9.620742319917554,0-6.746460853129975-4.969395454186269-10.723963882754106-12.105440047007505-10.723963882754106h-12.049813391353382v37.592487827399964ZM526.744997865583173,160.663034168432205c0-7.287122221958271,5.533911983685357-13.079452475110884,12.888580858942987-13.079452475110884,7.247358565703507,0,12.832954203285226,5.792330253152613,12.832954203285226,13.079452475110884,0,7.285135555684974-5.585595637581719,13.083425807657477-12.832954203285226,13.083425807657477-7.35466887525763,0-12.888580858942987-5.798290251972503-12.888580858942987-13.083425807657477M520.284783775140568,160.663034168432205c0,10.986340319375813,8.340601301000788,19.3786556050527,19.348794949385592,19.3786556050527,11.008193648383894,0,19.348855610949613-8.392315285676887,19.348855610949613-19.3786556050527,0-10.982366986827401-8.340661962565719-19.374682272504288-19.348855610949613-19.374682272504288-11.008193648384804,0-19.348794949385592,8.392315285676887-19.348794949385592,19.374682272504288M488.991483912290278,153.228822815279273c0,3.42689316403812-2.377387417539467,5.311284037923542-5.639281123138971,5.311284037923542h-5.700882943006945v-10.68022689395184h5.700882943006945c3.261893705599505,0,5.639281123138971,1.936089693170288,5.639281123138971,5.368942856028298M471.352131881593778,179.43343625518537h6.299187964550583v-14.874397870516987h2.876298463842431c4.75865717528086,0,8.740179033626191,6.082550348388395,10.232969170764591,14.874397870516987h6.52181591030876c-1.107164564598861-8.515549256198938-4.420772254871736-14.985711843399258-9.064172455507105-17.247781624728304,4.035146682334016-1.105193063718616,7.295099217832103-4.198144309113559,7.295099217832103-9.620742319917554,0-6.746460853129975-4.973399117515328-10.723963882754106-12.10547037779088-10.723963882754106h-12.055727894000484v37.592487827399964ZM443.994615056625662,179.43343625518537v-6.018931531465569h-14.486800797099022v-9.906989082604923h13.381607733378587v-6.016944865188634h-13.381607733378587v-9.630690816675269h14.486800797099022v-6.018931531465569h-20.782045759883658v37.592487827399964h20.782045759883658ZM396.087628914292509,165.055977930085646v-6.016944865190453h-13.381577402597941v-11.179153105644218h14.488772297981996v-6.018931531465569h-20.783986929984167v37.592487827399964h6.295214632002171v-14.377458325099724h13.381577402597941ZM349.049316391391585,179.43343625518537v-6.018931531465569h-14.486770466313828v-9.906989082604923h13.381577402596122v-6.016944865188634h-13.381577402596122v-9.630690816675269h14.486770466313828v-6.018931531465569h-20.781985098316909v37.592487827399964h20.781985098316909ZM293.618703748207736,179.43343625518537h6.295229797394313v-37.592487827399964h-6.295229797394313v37.592487827399964ZM243.461598152968691,179.43343625518537h6.295229797395223v-11.662170821758991l3.870162389287543-5.197998564161026,8.515564421588351,16.860169385920017h7.410356192481231l-11.447504706482505-22.169466757570262,10.892921508348991-15.423021069829701h-7.408369526206116l-11.833130279017496,16.806499065753087v-16.806499065753087h-6.295229797395223v37.592487827399964Z"></path><path class="uuid-695089a7-7ae6-47d4-b588-5fd344cc1c15" d="M1016.619654707826157,38.451696319159964c0,4.210064306751519,3.182366393091797,7.485879841653514,7.485879841657152,7.485879841653514,4.398934091255796,0,7.485879841654423-3.275815534901994,7.485879841654423-7.485879841653514,0-4.210094637537622-3.086945750398627-7.579328983467349-7.485879841654423-7.579328983467349-4.303513448565354,0-7.485879841657152,3.369234345929726-7.485879841657152,7.579328983467349M1030.470327997231834,52.02011134381064h-12.725643893734741v46.601018461858985h12.725643893734741v-46.601018461858985ZM978.142630261590057,52.02011134381064h-12.725643893732922v46.601018461858985h12.725643893732922v-27.043456734449137c.282258264751363-4.959446957429464,3.275785204120439-8.048424870274175,7.954975728462159-8.048424870274175,4.866028146399003,0,7.95303455836256,3.462683487739923,7.95303455836256,8.60896806722667v26.482913537496643h12.821003874861162v-30.037014004603407c0-10.014314557549369-6.456210427111728-17.500224729983529-16.470524984661097-17.500224729983529-5.800276918247619,0-9.730115122697498,2.808691148975413-12.258489177024785,6.831917833671469v-5.895697560943518ZM928.510247208815599,84.492156418673403c0-3.275845865686279,2.900168789907184-5.802278749913967,6.549689899707118-5.802278749913967,3.649521109798116,0,6.456210427110818,2.526432884227688,6.456210427110818,5.802278749913967,0,3.273813703237465-2.806689317312703,5.800276918247619-6.456210427110818,5.800276918247619-3.649521109799934,0-6.549689899707118-2.526463215010153-6.549689899707118-5.800276918247619M921.117786178188908,65.868843463118537c3.462683487742652-2.057336997422681,7.859615747334828-3.460681656079032,11.978232743941589-3.460681656079032,4.866028146399913,0,8.608968067224851,2.337593430505876,8.608968067224851,7.953004227581914v2.52643288422405c-2.339595262170405-1.965889687273375-6.269372805055355-3.369234345929726-10.201152179603923-3.369234345929726-9.449798028047553,0-15.532333211046534,6.645080211617824-15.532333211046534,14.97379184575766,0,7.859585416552363,4.959446957427645,15.158627636152232,15.345495588989252,15.158627636152232,4.492292240718598,0,8.048394539490801-1.779036899826679,10.387989801661206-4.492322571502882v3.462668322346872h12.725643893734741v-27.979677007182545c0-13.568445355436779-7.299042219599869-19.557561727404391-19.837848491276418-19.557561727404391-4.866028146397184,0-10.105731536911662,1.309925847624982-13.474996213624763,2.715272337947681v12.069680054088167ZM895.787821521927981,75.320643322827891c0,6.362791616085815-4.866088807963934,11.791364791102751-11.602555668161585,11.791364791102751-6.64511054239847,0-11.697976310854756-5.428573175016936-11.697976310854756-11.791364791102751,0-6.362821946866461,5.052865768456286-11.695974479187498,11.697976310854756-11.695974479187498,6.736466860197652,0,11.602555668161585,5.333152532321037,11.602555668161585,11.695974479187498M895.787821521927981,98.621129805669625h12.72758506383343V34.05276222790053h-12.72758506383343v23.95646548788136c-3.27384403402084-4.398903760473331-8.235292823111195-6.9253366446992-14.222468024982845-6.9253366446992-13.28815859156839,0-22.177383091880984,10.57488808528251-22.177383091880984,24.236752251745202,0,13.661833835683865,8.889224500312594,24.330140731997744,22.083964280853252,24.330140731997744,5.987175201869832,0,11.042042801989737-2.619851695257239,14.315886836010577-7.018755455732389v5.989101206576379ZM838.6695586274991,98.621129805669625h12.725643893732013v-46.601018461858985h-12.725643893732013v27.136890710875377c-.282258264749544,4.866028146396275-3.275845865685369,8.048424870272356-7.955036390027999,8.048424870272356-4.866028146398094,0-7.859555085768989-3.462653156961096-7.859555085768989-8.702386878254401v-26.482928702893332h-12.727645725397451v30.132449812692357c0,10.012343056663667,6.458272920343006,17.498222898322638,16.283748024167835,17.498222898322638,5.893695729277169,0,9.918893914856199-2.806719648098806,12.258489177026604-6.831917833673288v5.802263584517277ZM766.207801975743678,75.320643322827891c0-6.456240757894193,4.864086976298495-11.791395121881578,11.32229923507748-11.791395121881578,6.54962923813855,0,11.22881976248209,5.335154363987385,11.22881976248209,11.791395121881578,0,6.456210427113547-4.679190524343539,11.884783602130483-11.22881976248209,11.884783602130483-6.458212258778985,0-11.32229923507748-5.428573175016936-11.32229923507748-11.884783602130483M753.293379289855693,75.320643322827891c0,13.661833835683865,10.574827423717579,24.330140731997744,24.236721920965465,24.330140731997744,13.661833835682046,0,24.234720089300936-10.668306896313879,24.234720089300936-24.330140731997744,0-13.661864166462692-10.57288625361889-24.236752251745202-24.234720089300936-24.236752251745202-13.661894497247886,0-24.236721920965465,10.57488808528251-24.236721920965465,24.236752251745202M731.179508857160727,38.451696319159964c0,4.210064306751519,3.275845865686279,7.485879841653514,7.579359314249814,7.485879841653514,4.305454618663134,0,7.579298652683065-3.275815534901994,7.579298652683065-7.485879841653514,0-4.210094637537622-3.27384403401993-7.579328983467349-7.579298652683065-7.579328983467349-4.303513448563535,0-7.579359314249814,3.369234345929726-7.579359314249814,7.579328983467349M732.302597082733882,101.89696050596649c0,2.713285671674385-1.123088225573156,4.303498283170484-3.929777542885859,4.303498283170484-.842831792488141,0-2.152757640114032-.280286763865661-3.182427054658547-.936235438121003v12.821034205644537c.936250603514964.373705574895212,2.619912356822169.653977173373278,4.398934091257615.653977173373278,9.262960405992089,0,15.438914400018803-5.520005319775009,15.438914400018803-16.748855413037745v-49.9702679731854h-12.725643893732013v49.87684916215585ZM694.318569180149098,52.393816918707671l7.018725124949015,19.839819992157572h-14.035509079795702l7.016783954846687-19.839819992157572ZM710.4134170890311,98.621129805669625h14.880342703946553l-23.582729582200955-63.632116974253222h-14.878401533848773l-23.580727750537335,63.632116974253222h14.878340872284753l4.772609335369452-13.568430190041909h22.739958451282291l4.770607503704014,13.568430190041909ZM623.767045229227733,52.02011134381064h-12.725643893731103v46.601018461858985h12.725643893731103v-27.043456734449137c.280256433086834-4.959446957429464,3.36926467671492-8.048424870274175,7.861556917434427-8.048424870274175,2.806749978879452,0,5.052926430021216.562545028617023,6.829946332792133,1.405346490320881v-13.568445355436779c-1.029669414543605-.188839453721812-2.619851695257239-.282258264747725-3.649521109799025-.282258264747725-5.239703390513569,0-8.795805689283952,2.526432884225869-11.041982140427535,5.989116371967611v-5.052896099239661ZM574.134722838020025,84.492156418673403c0-3.275845865686279,2.900108128341344-5.802278749913967,6.549629238140369-5.802278749913967,3.649521109799934,0,6.456271088677568,2.526432884227688,6.456271088677568,5.802278749913967,0,3.273813703237465-2.806749978877633,5.800276918247619-6.456271088677568,5.800276918247619-3.649521109799025,0-6.549629238140369-2.526463215010153-6.549629238140369-5.800276918247619M566.742261807393334,65.868843463118537c3.460681656077213-2.057336997422681,7.859555085768079-3.460681656079032,11.976230912275241-3.460681656079032,4.866028146399003,0,8.60896806722576,2.337593430505876,8.60896806722576,7.953004227581914v2.52643288422405c-2.339595262170405-1.965889687273375-6.269372805055355-3.369234345929726-10.199211009506143-3.369234345929726-9.451739198144423,0-15.534335042709245,6.645080211617824-15.534335042709245,14.97379184575766,0,7.859585416552363,4.959507618991665,15.158627636152232,15.347497420652871,15.158627636152232,4.490351070622637,0,8.046453369392111-1.779036899826679,10.386048631562517-4.492322571502882v3.462668322346872h12.72764572539927v-27.979677007182545c0-13.568445355436779-7.29910288116298-19.557561727404391-19.839850322939128-19.557561727404391-4.864026314732655,0-10.105731536911662,1.309925847624982-13.472994381961144,2.715272337947681v12.069680054088167ZM539.63321475513203,74.6666509840652c0,6.175953994026713-4.677188692678101,11.135431282236823-11.135461613021107,11.135431282236823-6.269372805055355,0-11.041982140424807-4.95947728821011-11.041982140424807-11.135431282236823,0-6.082535182998981,4.772609335369452-11.137402783118887,11.041982140424807-11.137402783118887,6.458272920343006,0,11.135461613021107,5.054867600119906,11.135461613021107,11.137402783118887M540.382567075024781,52.02011134381064v6.175984324810997c-3.182366393093616-4.303513448563535-8.235292823113923-7.112204597538948-14.784922061254292-7.112204597538948-12.725643893732013,0-21.803707847768237,10.29460132141503-21.803707847768237,23.676178724010242,0,13.379605901714967,9.078063954036224,23.487354435683301,21.897126658796878,23.487354435683301,6.456210427111728,0,11.509136857132034-2.808706314368465,14.691503250225651-6.831932999066339v3.275845865686279c0,7.579313818074297-5.520020485164423,12.071651554968412-13.101320969512926,12.071651554968412-5.519959823596764,0-11.695974479190227-2.059323663694158-15.719170833102908-4.679190524340811v13.19473978053793c3.087006411965376,1.68363142252565,9.076122783933897,3.460696821472084,15.625752022075176,3.460696821472084,16.188327381476483,0,25.920383674272671-8.608983232617902,25.920383674272671-25.733530886824155v-40.98559249939899h-12.725643893732013ZM474.943599873112362,61.658779156365199c5.426571343351497,0,9.451799859712992,3.275815534901994,9.638637481768455,8.046423038607827h-20.120106756022324c.655963839645665-4.396901928808802,4.866028146397184-8.046423038607827,10.481469274253868-8.046423038607827M496.091343881232206,79.343839676741482c.373705574897031-1.496763469684083.749382650675216-4.116645495723787.749382650675216-6.082535182998981,0-12.069649723302064-8.328711634140745-22.177413422659811-21.803707847767328-22.177413422659811-13.474996213624763,0-23.300501648232967,10.57488808528251-23.300501648232967,24.236752251745202,0,14.504665628168368,10.199180678722769,24.330140731997744,24.049884298909092,24.330140731997744,6.736497190979208,0,12.725613562950457-1.496778635078954,16.84228938945671-3.649521109800844v-12.258489177027514c-4.210094637535803,2.71327050628679-10.012373387448861,4.396901928810621-15.814621806579453,4.396901928810621-6.549659568924653,0-11.228850093265464-3.460681656077213-12.351938318834982-8.795836020066417h31.629213282373712ZM427.935102509706667,98.621129805669625h13.286187090687235v-63.632116974253222h-13.286187090687235v40.51846811347059l-27.886273361548774-40.51846811347059h-15.721172664766527v.936250603514054l4.398903760474241,7.01875545573057v55.677110915008598h13.286187090686326v-36.775513027247143l25.922355175154735,36.775513027247143ZM336.510146150322726,90.948397176569415c0,4.959446957427645,3.649521109798116,8.60896806722667,8.60896806722667,8.60896806722667,5.052896099237842,0,8.795836020065508-3.649521109799025,8.795836020065508-8.60896806722667,0-5.052896099239661-3.742939920827666-8.795836020066417-8.795836020065508-8.795836020066417-4.959446957428554,0-8.60896806722667,3.742939920826757-8.60896806722667,8.795836020066417M320.220468458115647,52.02011134381064h-12.727615394614077v46.601018461858985h12.727615394614077v-27.043456734449137c.280271598477157-4.959446957429464,3.367262845050391-8.048424870274175,7.859600581942686-8.048424870274175,2.806719648096987,0,5.052865768457195.562545028617023,6.831917833674197,1.405346490320881v-13.568445355436779c-1.02963908376023-.188839453721812-2.619882026039704-.282258264747725-3.649521109799934-.282258264747725-5.241720387568421,0-8.795836020066417,2.526432884225869-11.041997305816949,5.989116371967611v-5.052896099239661ZM265.992441022225648,47.810047037059121c11.509121691742621,0,17.780496328461595,8.233290991447575,17.780496328461595,18.995016698789186,0,10.855144518369343-6.271374636718974,18.997018530453715-17.780496328461595,18.997018530453715h-10.199195844114001v-37.992035229242902h10.199195844114001ZM242.505086586543257,98.621129805669625h23.580773246711033c19.370708939958604,0,31.442360494927016-13.194724615146697,31.442360494927016-31.816066069821318,0-18.621311123890337-12.071651554968412-31.816050904431904-31.442360494927016-31.816050904431904h-23.580773246711033v63.632116974253222Z"></path><path class="uuid-b500efe8-7259-44e3-8f86-f49c89aaea7d" d="M63.909232570643326,210.9130859375c-3.3583984375,0-6.70263671875-1.0185546875-9.41552734375-2.869140625-4.50732421875-3.072265625-8.341796875-7.453125-11.65380859375-13.328125-4.77978515625-.7109375-10.9052734375-2.3193359375-17.48486328125-5.8017578125-12.580078125-6.662109375-20.12890625-16.626953125-21.83154296875-28.8173828125-1.56689453125-11.2138671875.58935546875-18.236328125,4.8427734375-26.576171875,1.84033203125-3.6083984375,6.2958984375-9.349609375,13.25-14.9375-.46142578125-1.2861328125-.93017578125-2.4765625-1.4111328125-3.5869140625-.9697265625-2.2392578125-2.09423828125-4.7275390625-3.3037109375-7.404296875C7.328177883143326,86.40234375-5.782661960606674,57.3818359375,2.770560695643326,38.4658203125,13.279838039393326,15.2275390625,28.735892726893326,3.4453125,48.710990383143326,3.4453125c16.6796875,0,32.4072265625,8.3916015625,42.97412109375,14.125C101.005423976893326,8.4462890625,117.080131008143326,0,135.170951320643326,0c2.53515625,0,5.09521484375.1650390625,7.609375.490234375,25.84912109375,3.4501953125,40.55029296875,15.1513671875,43.8095703125,34.8212890625,11.62744140625,2.3212890625,19.80712890625,8.884765625,22.77197265625,18.453125,2.21923828125,7.1611328125.55224609375,15.216796875-4.693359375,22.6826171875-5.6298828125,8.0126953125-15.1142578125,15.138671875-28.18994140625,21.181640625-1.10009765625.5078125-2.1806640625.998046875-3.248046875,1.4775390625-1.08154296875,2.79296875-2.17626953125,5.5791015625-3.26318359375,8.3447265625-5.0576171875,12.87109375-9.8349609375,25.0283203125-12.29638671875,35.3916015625-.88671875,3.7333984375-1.74853515625,7.6796875-2.6611328125,11.859375-2.943359375,13.4814453125-5.98681640625,27.421875-10.490234375,36.9287109375-3.29296875,6.9501953125-10.517578125,18.611328125-21.89794921875,18.611328125-.00048828125,0,.00048828125,0-.00048828125,0-11.18994140625,0-20.60205078125-11.189453125-28.7734375-34.2080078125l-.06787109375-.19140625-.05712890625-.1962890625c-.56298828125-1.9365234375-1.07861328125-3.59765625-1.546875-5.0224609375-.39599609375,1.248046875-.78076171875,2.4931640625-1.1328125,3.6318359375-3.90869140625,12.6484375-8.77294921875,28.388671875-18.91357421875,34.4384765625-2.43115234375,1.451171875-5.2744140625,2.21875-8.22021484375,2.21875Z"></path><path class="uuid-2e4176df-9f96-4077-9dcf-bc23f53d9320" d="M202.675188858746878,55.837096259023383c-2.313018798828125-7.464996337890625-9.47900390625-13.09600830078125-21.433013916015625-14.24200439453125-.35699462890625-.03399658203125-.694976806640625-.066986083984375-1.02398681640625-.09698486328125-.88299560546875-17.3280029296875-10.707000732421875-30.378021240234375-38.33599853515625-34.06500244140625-22.662017822265625-2.9320068359375-41.61700439453125,9.673004150390625-48.660003662109375,18.90399169921875-17.48199462890625-9.05499267578125-60.270004272460938-37.62200927734375-84.072998046875,15.01300048828125C.863177139996878,59.674101874257758,18.768175919293753,94.067107245351508,26.628176529645316,112.213103339101508c1.180999755859375,2.7249755859375,2.233001708984375,5.743988037109375,3.199005126953125,8.97698974609375-8.199005126953125,5.65399169921875-13.434005737304688,11.998992919921875-15.225006103515625,15.510986328125-4.110992431640625,8.05999755859375-5.392990112304688,13.50201416015625-4.14599609375,22.427001953125,1.305999755859375,9.35101318359375,6.910003662109375,17.635009765625,18.173995971679688,23.5989990234375,7.564010620117188,4.004013061523438,14.389007568359375,5.157012939453125,18.6820068359375,5.43402099609375,2.916000366210938,6.029998779296875,6.509002685546875,10.952987670898438,11.125,14.099990844726562,2.932998657226562,2,7.06500244140625,2.23699951171875,10.105987548828125.4219970703125,18.59100341796875-11.090988159179688,18.03302001953125-76.681991577148438,31.9010009765625-28.990982055664062,16.197021484375,45.623992919921875,31.483001708984375,28.167984008789062,37.7490234375,14.941986083984375,5.489990234375-11.587982177734375,8.94097900390625-31.7239990234375,12.6669921875-47.40899658203125,3.29998779296875-13.89300537109375,10.451995849609375-30.548004150390625,16.878997802734375-47.3380126953125,1.897003173828125-.83599853515625,3.819000244140625-1.696990966796875,5.803009033203125-2.61297607421875,26.08599853515625-12.05401611328125,31.9329833984375-26.40301513671875,29.13299560546875-35.43701171875M37.096178848981253,107.741087958242133c-1.386993408203125-2.569000244140625-2.850997924804688-5.10498046875-4.20599365234375-7.68499755859375-12.363998413085938-23.54400634765625-19.830001831054688-52.27398681640625-2.26300048828125-70.427001953125,15.96600341796875-16.49798583984375,38.451995849609375-1.584991455078125,52.4639892578125,4.727996826171875-4.897003173828125,1.95501708984375-10.2969970703125,2.97601318359375-15.77099609375,2.9840087890625-19.037002563476562.02899169921875,10.75,9.20599365234375,20.665008544921875,2.779998779296875,12.683990478515625-7.949005126953125,29.92401123046875-21.006988525390625,46.6820068359375-22.010009765625,16.75799560546875-1.003997802734375,33.03399658203125,10.047027587890625,35.097991943359375,33.722015380859375.75,8.60699462890625-4.766998291015625,23.839996337890625-11.123992919921875,39.260009765625-2.1719970703125.941986083984375-4.417022705078125,1.866973876953125-6.72601318359375,2.78900146484375-8.753997802734375,3.493988037109375-21.30499267578125,7.1519775390625-40.46600341796875,10.548980712890625-.68499755859375.12200927734375-1.360992431640625.235992431640625-2.032989501953125.34600830078125.0050048828125-6.9630126953125.665985107421875-13.70001220703125-2.149993896484375-13.498992919921875-3.282012939453125.2349853515625-4.73699951171875,2.333984375-8.739013671875,7.121002197265625-2.123992919921875,2.53997802734375-3.32598876953125,4.324981689453125-4.006988525390625,6.095977783203125-.688018798828125-1.76898193359375-1.897003173828125-3.548980712890625-4.029998779296875-6.08099365234375-4.02099609375-4.772003173828125-5.4840087890625-6.864990234375-8.7659912109375-7.087005615234375-3.2230224609375-.217987060546875-1.860015869140625,8.626007080078125-2.1400146484375,16.509002685546875-6.5880126953125.5570068359375-13.873992919921875,1.2860107421875-22.663009643554688,2.593017578125-6.245986938476562.92999267578125-11.884994506835938,2.72698974609375-16.875,4.985992431640625-.89599609375-3.0570068359375-1.865997314453125-5.667999267578125-2.949996948242188-7.67401123046875M42.077181656598441,180.992095038320258c-15.964996337890625-3.894989013671875-23.220993041992188-14.572998046875-21.606002807617188-28.196990966796875,1.102996826171875-9.305999755859375,5.600006103515625-16.613006591796875,11.809005737304688-22.282012939453125,3.871994018554688,16.44000244140625,6.649993896484375,35.97601318359375,12.25,51.06500244140625-.746002197265625-.17401123046875-1.561004638671875-.36798095703125-2.4530029296875-.58599853515625M142.387194473981253,131.772093817617133c-.855010986328125,3.13299560546875-1.7340087890625,6.25799560546875-2.649017333984375,9.37799072265625-5.760009765625,19.628997802734375-11.031005859375,80.007003784179688-28.183990478515625,33.6920166015625-22.108001708984375-60.34600830078125-32.420989990234375-2.746002197265625-44.42401123046875,16.66400146484375-1.092987060546875,1.766998291015625-4.050994873046875,2.115997314453125-5.695999145507812.630996704101562-11.060989379882812-9.983016967773438-14.350997924804688-45.613998413085938-19.363998413085938-68.607009887695312,3.978012084960938-2.240997314453125,8.214004516601562-4.066986083984375,12.460006713867188-5.524993896484375,5.509994506835938-1.891998291015625,13.860000610351562-2.946990966796875,24.918014526367188-4.15301513671875.0009765625,6.30401611328125.485992431640625,12.12701416015625,1.613983154296875,12.659027099609375,1.459991455078125.689971923828125,2.949005126953125.343994140625,6.391998291015625-2.956024169921875,2.51300048828125-2.40899658203125,5.614013671875-7.281982421875,7.082000732421875-10.77197265625,1.480987548828125,3.483978271484375,4.600982666015625,8.345977783203125,7.123016357421875,10.7449951171875,3.454986572265625,3.285980224609375,4.94598388671875,3.626983642578125,6.402984619140625,2.9320068359375,1.329010009765625-.634033203125,1.7340087890625-8.63201904296875,1.506988525390625-16.094024658203125,17.032012939453125-2.28399658203125,30.628021240234375-5.587982177734375,45.7550048828125-11.35699462890625-5.444000244140625,12.834991455078125-10.824981689453125,25.0260009765625-12.936981201171875,32.76300048828125M189.756182511090628,64.880095526601508c-3.427001953125,8.760986328125-9.99700927734375,14.91900634765625-18.6719970703125,20.02099609375,4.6669921875-12.98199462890625,8.404998779296875-25.760986328125,9.0889892578125-37.118988037109375,10.199005126953125,3.574981689453125,11.8179931640625,11.385986328125,9.5830078125,17.097991943359375"></path><path class="uuid-2e4176df-9f96-4077-9dcf-bc23f53d9320" d="M77.347277481793753,73.805785223867133c.438995361328125.33099365234375,8.8599853515625,6.595001220703125,17.141998291015625,6.89599609375,2.05499267578125.07501220703125,5.009002685546875-.186004638671875,6.923004150390625-1.027984619140625,8.779998779296875-3.865997314453125,9.347991943359375-7.510009765625,9.44500732421875-9.319000244140625.083984375-1.555999755859375-.916015625-2.88201904296875-2.233001708984375-2.96099853515625-1.152008056640625-.076019287109375-2.178009033203125.847991943359375-2.462005615234375,2.1309814453125-.2139892578125.3690185546875-1.558013916015625,2.31500244140625-7.27801513671875,4.834014892578125-6.128997802734375,2.696990966796875-15.743988037109375-2.92401123046875-18.930999755859375-5.319000244140625-1.105987548828125-.832000732421875-2.58599853515625-.441009521484375-3.30499267578125.873992919921875-.720001220703125,1.316009521484375-.406982421875,3.0579833984375.699005126953125,3.891998291015625"></path></g></svg>